<?xml version="1.0" encoding="utf-8"?>
<!-- Generator: Adobe Illustrator 18.1.1, SVG Export Plug-In . SVG Version: 6.00 Build 0)  -->
<svg version="1.2" baseProfile="tiny" id="Layer_1" xmlns="http://www.w3.org/2000/svg" xmlns:xlink="http://www.w3.org/1999/xlink"
	 x="0px" y="0px" viewBox="-282 403.8 31 35.1" xml:space="preserve">
<path fill="#FFFFFF" d="M-254,412.9h-5.8v-2.4c0-3.7-3-6.7-6.7-6.7s-6.7,3-6.7,6.7v2.4h-5.8l-3,26h31L-254,412.9z M-272.2,410.5
	c0-3.1,2.6-5.7,5.7-5.7c3.1,0,5.7,2.6,5.7,5.7v2.4h-11.4V410.5z M-278.1,413.9h4.9v1.1c-0.8,0.2-1.4,0.9-1.4,1.8
	c0,1,0.8,1.9,1.9,1.9c1,0,1.9-0.8,1.9-1.9c0-0.9-0.6-1.6-1.4-1.8v-1.1h11.4v1.1c-0.8,0.2-1.4,0.9-1.4,1.8c0,1,0.8,1.9,1.9,1.9
	c1,0,1.9-0.8,1.9-1.9c0-0.9-0.6-1.6-1.4-1.8v-1.1h4.9l2.8,24h-28.8L-278.1,413.9z"/>
</svg>
